<?xml version="1.0" encoding="UTF-8" standalone="no"?>
<!DOCTYPE svg PUBLIC "-//W3C//DTD SVG 20010904//EN"
              "http://www.w3.org/TR/2001/REC-SVG-20010904/DTD/svg10.dtd">

<svg xmlns="http://www.w3.org/2000/svg"
     width="184.176mm" height="147.129mm"
     viewBox="0 0 696 556">
  <path id="Auswahl"
        fill="none" stroke="black" stroke-width="1"
        d="M 578.00,287.00
           C 578.00,287.00 578.00,256.00 578.00,256.00
             578.07,250.19 578.93,245.30 584.04,241.70
             593.34,235.15 610.18,239.75 608.89,253.00
             608.40,258.06 605.76,260.08 602.00,263.00
             604.51,263.53 605.83,263.75 607.94,265.43
             615.28,271.27 613.13,283.28 604.00,286.99
             601.38,288.06 593.99,288.89 592.02,286.40
             590.76,284.81 591.01,280.99 591.00,279.00
             601.07,282.52 603.08,275.12 600.26,271.22
             598.09,268.23 594.39,267.53 591.00,267.00
             591.02,265.02 590.81,262.37 591.99,260.68
             593.33,258.77 597.73,257.37 598.21,253.00
             598.81,247.44 591.03,243.69 588.57,252.02
             587.78,254.67 588.00,260.97 588.00,264.00
             588.00,264.00 588.00,287.00 588.00,287.00
             588.00,287.00 578.00,287.00 578.00,287.00 Z
           M 227.00,240.00
           C 227.00,240.00 238.00,240.00 238.00,240.00
             238.00,240.00 238.00,258.00 238.00,258.00
             241.90,254.93 243.84,253.67 249.00,254.11
             263.01,255.31 263.38,274.84 257.20,282.90
             252.82,288.60 244.36,289.94 239.00,285.00
             235.06,287.81 231.69,287.00 227.00,287.00
             227.00,287.00 227.00,240.00 227.00,240.00 Z
           M 487.00,240.00
           C 487.00,240.00 497.00,240.00 497.00,240.00
             497.00,240.00 497.00,287.00 497.00,287.00
             492.96,287.00 488.75,288.21 487.00,284.00
             482.93,286.87 480.18,288.40 475.00,287.89
             457.98,286.23 459.24,251.96 480.00,254.11
             483.34,254.45 484.30,255.22 487.00,257.00
             487.00,257.00 487.00,240.00 487.00,240.00 Z
           M 113.00,242.00
           C 113.00,242.00 124.47,242.99 124.47,242.99
             124.47,242.99 131.00,252.00 131.00,252.00
             131.00,252.00 144.00,272.00 144.00,272.00
             144.00,272.00 144.00,242.00 144.00,242.00
             144.00,242.00 154.00,242.00 154.00,242.00
             154.00,242.00 154.00,287.00 154.00,287.00
             154.00,287.00 143.18,285.98 143.18,285.98
             143.18,285.98 136.31,277.00 136.31,277.00
             136.31,277.00 123.00,257.00 123.00,257.00
             123.00,257.00 123.00,287.00 123.00,287.00
             123.00,287.00 113.00,287.00 113.00,287.00
             113.00,287.00 113.00,242.00 113.00,242.00 Z
           M 370.00,242.00
           C 370.00,242.00 385.30,242.99 385.30,242.99
             385.30,242.99 389.33,252.00 389.33,252.00
             389.33,252.00 397.00,274.00 397.00,274.00
             397.00,274.00 403.69,251.00 403.69,251.00
             403.69,251.00 407.70,242.99 407.70,242.99
             407.70,242.99 422.00,242.00 422.00,242.00
             422.00,242.00 422.00,287.00 422.00,287.00
             422.00,287.00 412.00,287.00 412.00,287.00
             412.00,287.00 411.00,253.00 411.00,253.00
             411.00,253.00 403.67,277.00 403.67,277.00
             403.67,277.00 399.49,285.98 399.49,285.98
             399.49,285.98 391.00,287.00 391.00,287.00
             391.00,287.00 380.00,255.00 380.00,255.00
             380.00,255.00 380.00,287.00 380.00,287.00
             380.00,287.00 370.00,287.00 370.00,287.00
             370.00,287.00 370.00,242.00 370.00,242.00 Z
           M 329.00,255.00
           C 329.11,246.27 331.58,246.19 340.00,245.00
             340.00,245.00 340.00,255.00 340.00,255.00
             340.00,255.00 347.00,255.00 347.00,255.00
             347.00,255.00 347.00,262.00 347.00,262.00
             347.00,262.00 340.00,262.00 340.00,262.00
             340.00,275.26 338.04,280.57 347.00,280.00
             346.98,281.83 347.16,284.91 345.98,286.40
             343.24,289.86 334.14,287.79 331.70,284.77
             327.93,280.11 329.00,268.05 329.00,262.00
             329.00,262.00 324.00,262.00 324.00,262.00
             324.00,262.00 324.00,255.00 324.00,255.00
             324.00,255.00 329.00,255.00 329.00,255.00 Z
           M 172.00,254.64
           C 178.76,253.28 186.76,253.48 191.61,259.11
             197.60,266.05 197.24,283.53 184.00,287.36
             177.62,289.21 168.95,287.94 164.39,282.81
             161.09,279.10 161.00,275.67 161.00,271.00
             161.00,262.06 163.42,257.88 172.00,254.64 Z
           M 212.00,258.00
           C 216.59,254.15 217.13,254.08 223.00,254.00
             223.00,254.00 223.00,262.00 223.00,262.00
             208.62,260.27 212.00,277.51 212.00,287.00
             212.00,287.00 202.00,287.00 202.00,287.00
             202.00,287.00 202.00,255.00 202.00,255.00
             206.04,255.00 210.25,253.79 212.00,258.00 Z
           M 293.00,279.00
           C 292.97,280.95 293.15,283.85 291.98,285.49
             289.24,289.33 276.81,288.27 273.00,286.43
             267.46,283.75 265.30,278.89 265.04,273.00
             264.16,252.86 284.05,250.04 291.78,258.13
             296.29,262.86 296.00,267.98 296.00,274.00
             296.00,274.00 275.00,274.00 275.00,274.00
             280.05,283.10 284.58,280.90 293.00,279.00 Z
           M 313.00,258.00
           C 315.69,253.52 318.17,254.05 323.00,254.00
             323.00,254.00 323.00,262.00 323.00,262.00
             308.51,260.26 312.00,277.57 312.00,287.00
             312.00,287.00 302.00,287.00 302.00,287.00
             302.00,287.00 302.00,255.00 302.00,255.00
             302.00,255.00 312.00,255.00 312.00,255.00
             312.00,255.00 313.00,258.00 313.00,258.00 Z
           M 432.00,256.00
           C 437.27,254.81 439.32,253.78 445.00,254.04
             461.81,254.80 458.00,275.37 458.00,287.00
             453.96,287.00 449.75,288.21 448.00,284.00
             444.18,287.01 442.09,288.39 437.00,287.89
             427.79,286.99 426.02,275.81 431.42,270.42
             434.84,266.99 443.29,266.22 448.00,266.00
             444.09,258.68 438.27,261.59 432.00,264.00
             432.00,264.00 432.00,256.00 432.00,256.00 Z
           M 506.00,256.00
           C 511.27,254.81 513.32,253.78 519.00,254.04
             535.81,254.80 532.00,275.37 532.00,287.00
             527.96,287.00 523.75,288.21 522.00,284.00
             518.18,287.01 516.09,288.39 511.00,287.89
             501.79,286.99 500.02,275.81 505.42,270.42
             508.84,266.99 517.29,266.22 522.00,266.00
             518.09,258.68 512.27,261.59 506.00,264.00
             506.00,264.00 506.00,256.00 506.00,256.00 Z
           M 539.00,255.00
           C 539.00,255.00 549.11,255.00 549.11,255.00
             549.11,255.00 549.11,274.00 549.11,274.00
             549.68,276.50 551.14,279.67 554.02,279.97
             556.92,280.28 558.73,277.37 559.43,274.98
             560.34,271.91 560.00,259.04 560.00,255.00
             560.00,255.00 570.00,255.00 570.00,255.00
             570.00,255.00 570.00,287.00 570.00,287.00
             565.96,287.00 561.75,288.21 560.00,284.00
             557.96,285.44 556.45,286.60 554.00,287.35
             548.22,289.12 541.63,287.13 539.65,280.98
             538.53,277.52 539.00,259.87 539.00,255.00 Z
           M 177.02,261.54
           C 167.01,265.29 170.52,281.89 178.99,280.46
             186.75,279.16 188.41,261.84 177.02,261.54 Z
           M 243.04,261.54
           C 238.12,263.46 236.63,267.91 237.20,273.00
             237.64,276.92 240.34,281.50 244.96,280.16
             251.17,278.35 253.50,261.82 243.04,261.54 Z
           M 286.00,268.00
           C 284.86,258.41 277.77,259.98 275.00,268.00
             275.00,268.00 286.00,268.00 286.00,268.00 Z
           M 480.01,261.66
           C 474.13,263.58 473.32,268.34 474.21,274.00
             474.77,277.56 476.80,281.19 481.00,280.46
             488.17,279.22 490.48,263.01 480.01,261.66 Z
           M 448.00,272.00
           C 448.00,272.00 443.02,272.97 443.02,272.97
             432.41,275.84 443.44,285.79 447.26,276.89
             447.93,275.35 447.90,273.64 448.00,272.00 Z
           M 522.00,272.00
           C 522.00,272.00 517.02,272.97 517.02,272.97
             506.41,275.84 517.44,285.79 521.26,276.89
             521.93,275.35 521.90,273.64 522.00,272.00 Z" />
</svg>
