<svg xmlns="http://www.w3.org/2000/svg" version="1.1" width="600px" height="600px" viewBox="0 0 200 200" style="overflow:hidden!important;"><g id="svga-group-wrapper"><g id="svga-group-backs-single"><path id="SvgjsPath11467" d="M0 0h200v200H0V0z" fill="#ecf0f1" stroke-width="none" opacity="1"></path></g><g id="svga-group-humanwrap-move" transform="matrix(1,0,0,1,0,0)"><g id="svga-group-humanwrap"><g id="svga-group-hair-back-move" transform="matrix(1,0,0,1,0,0)"><g id="svga-group-hair-back"></g></g><g id="svga-group-humanbody-back"><path id="SvgjsPath11402" d="M180.8 184.9c-2.3-3.4-38.9-17.8-38.9-17.8l-13.4-5.2-5.6-68.8H76.8L71.3 162l-13.4 5.2S21.4 181.6 19 185c-2.3 3.4-3.3 14.9-3.3 14.9V219h168.5v-19.2c-.1.1-1-11.5-3.4-14.9z" fill="#f0c7b1" stroke-width="none" opacity="1"></path></g><g id="svga-group-chinshadow-single"><path id="SvgjsPath11398" d="M83.41 160.9c3 1.6 18.4 1.6 21.4 0 2.3-1.22 14.94-13.04 22.02-20.04l-3.89-47.76H76.82l-4.61 58.02c5.18 4.83 9.98 9.09 11.2 9.78z" fill="#d19271" stroke-width="none" opacity="1"></path></g><g id="svga-group-humanbody-front"><path id="SvgjsPath11403" d="M184.5 219c-.1-6.4-.1-12.8-.1-19.2l-.3-.1s.1-.1.2 0c.1 0 .1.1.1.1v-.4l-.1-.5-.1-.9-.2-1.9c-.2-1.3-.4-2.5-.6-3.8-.2-1.3-.5-2.5-.9-3.8-.4-1.2-.8-2.5-1.5-3.6-.8-.9-1.9-1.5-2.9-2.1-1-.6-2.1-1.1-3.2-1.7-2.1-1.1-4.3-2.1-6.5-3.1-4.4-2-8.7-3.9-13.1-5.7-4.4-1.9-8.8-3.7-13.2-5.5l-13-5.2-1.2-16.9c-.4-5.7-.9-11.5-1.3-17.2l-1.3-17.2-1.5-17.3-.1-.8h-.8c-7.7 0-15.4.1-23.1.1l-23.1.2h-.5v.5L75 110.2l-1.3 17.2c-.8 11.4-1.8 22.8-2.8 34.2-5.6 2.1-11.2 4.2-16.7 6.4-5.6 2.2-11.2 4.5-16.8 6.9-2.8 1.2-5.6 2.4-8.3 3.6-2.8 1.3-5.5 2.5-8.2 4.1-.7.4-1.3.8-2 1.4-.2.1-.4.4-.5.6l-.3.6c-.2.4-.4.7-.5 1.1-.6 1.5-1 3-1.3 4.5-.6 3-1.1 6-1.4 9.1l-.1 19.1v.9h.9l42.1.1H100c14 0 28.1-.1 42.1-.2l42.1-.5h.3v-.3zm-84.5-1-42.1-.1-41.2.1-.1-18.1c.3-3 .6-5.9 1.2-8.9.3-1.4.6-2.9 1.1-4.2.1-.3.3-.7.4-.9l.2-.4.3-.3c.5-.4 1.1-.8 1.8-1.2 2.5-1.5 5.3-2.8 8-4.1 2.7-1.3 5.5-2.5 8.2-3.7 5.5-2.4 11.1-4.8 16.7-7.1s11.2-4.5 16.9-6.7l.2-.1v-.2c.9-11.5 1.7-23 2.7-34.4l1.4-17.2 1.5-16.7 22.6.2c7.4.1 14.8.1 22.3.1l1.3 16.4 1.5 17.2c.5 5.7 1 11.5 1.5 17.2l1.6 17.2v.3l.3.1 13.4 5c4.4 1.7 8.9 3.4 13.3 5.2 4.4 1.8 8.8 3.7 13.2 5.6 2.2 1 4.3 2 6.5 3 1.1.5 2.1 1.1 3.2 1.6 1 .6 2.1 1.2 2.9 2 .7 1.1 1.1 2.3 1.4 3.5.3 1.2.6 2.5.8 3.7.2 1.3.4 2.5.6 3.8l.2 1.9.1.9.1.5v.4c0 6.3 0 12.6-.1 18.9l-41.8-.5c-14 .1-28.1 0-42.1 0z" fill="#c27b55" stroke-width="none" opacity="1"></path><path id="SvgjsPath11404" d="M125.1 142.4s-1.8 23-9.1 32.9c0 0 7.9-25 9.1-32.9zm-34.5 16s5 7.9 11.5 10.1c0 0-9.5 2.2-11.5-10.1zM73.4 140c6.7 25.6 6.7 25.6 8.5 30.7 0 0 .4-12.6-8.5-30.7z" fill="#d19271" stroke-width="none" opacity="1"></path></g><g id="svga-group-clothes-single"><path id="SvgjsPath11290" d="M56.9 166.6s-31.1 11.5-38.3 16.7c0 0-2.3 2.3-3.3 9.3-1 7-1.4 27.3-1.4 27.3h171.5s-.2-16.2-1.3-25.3c-1.2-9.1-1.9-9.3-3.1-10.5-1.2-1.2-27.3-14-38.6-17.5 0 0-1.6 22-40.1 23.6s-45.2-17.5-45.4-23.6z" fill="#386e77" stroke-width="none" opacity="1"></path><path id="SvgjsPath11291" d="M185.8 220c-.1-6.6-.3-13.2-.7-19.8-.2-3.3-.6-6.6-1.1-9.8-.3-1.6-.5-3.3-1.3-4.9-.2-.4-.5-.8-.8-1.1-.3-.3-.6-.6-1-.9-.8-.5-1.5-.9-2.2-1.2-5.8-3.1-11.8-5.9-17.8-8.7-3-1.4-6-2.7-9.1-3.9-3.1-1.3-6.1-2.5-9.3-3.5l-.5-.2-.1.6c-.3 2.1-1 4.2-2.1 6.1l-.4.7-.4.7-.9 1.4-1 1.3c-.4.4-.7.9-1.1 1.2-1.5 1.6-3.2 2.9-5 4.1-.9.6-1.8 1.2-2.8 1.7l-3 1.4c-4.1 1.6-8.3 2.9-12.7 3.6l-3.3.5-3.3.3-3.3.3c-1.1.1-2.2 0-3.3.1H96c-1.1 0-2.2-.1-3.3-.1l-3.3-.2-3.3-.4c-2.2-.2-4.3-.8-6.5-1.2-1.1-.2-2.1-.6-3.2-1l-1.6-.5-1.5-.7c-4.1-1.7-7.9-4.1-10.8-7.4l-1.1-1.2c-.3-.4-.6-.9-1-1.3-.7-.9-1.1-1.9-1.7-2.8-1-2-1.6-4.1-1.8-6.4-3.4 1.2-6.6 2.4-9.9 3.6-3.3 1.2-6.5 2.5-9.8 3.8-3.2 1.3-6.5 2.7-9.6 4.1-3.2 1.5-6.4 2.9-9.3 4.9-1.1 1.3-1.7 2.8-2.2 4.2-.5 1.5-.9 3-1.1 4.6-.5 3.1-.6 6.2-.8 9.3-.4 6.2-.6 12.4-.7 18.7v.4h.4c14.3.1 28.6-.1 42.9-.1l42.9-.1h21.4l21.4.1 42.9.2h.4v-.5zm-64.7-.2H99.7l-42.9-.1c-6.8 0-13.6 0-20.5-.1-.1-3.4-.5-6.7-1-10-.6-3.4-1.3-6.8-2.5-10-.6-1.6-1.5-3.2-2.5-4.6-1-1.4-2-2.8-3.2-4.1-2.3-2.6-4.9-4.9-7.6-6.9 2.5 2.3 4.9 4.8 7.1 7.4 2.1 2.6 4.1 5.4 5.3 8.6 1.2 3.1 2 6.5 2.7 9.8.4 1.7.7 3.4 1 5 .3 1.6.6 3.2.8 4.9-7.3 0-14.6-.1-22 0 .1-6.1.3-12.1.6-18.2.2-3.1.3-6.2.8-9.3.2-1.5.6-3 1.1-4.5.5-1.4 1.1-2.9 2-4 2.8-1.9 6-3.4 9.1-4.9 3.2-1.5 6.4-2.8 9.6-4.2 3.2-1.4 6.4-2.7 9.7-4l9.7-3.8c.1 2.1.8 4.4 1.7 6.4.5 1 1 2 1.7 2.9.3.5.6.9 1 1.4l1.1 1.3c3 3.4 6.8 5.9 10.9 7.6l1.5.7 1.6.5c1.1.3 2.1.8 3.2 1 2.2.5 4.3 1.1 6.6 1.3l3.3.5 3.3.2c1.1.1 2.2.2 3.3.2h5.3c-.2.7-.2 1.3-.1 1.9.1.7.2 1.3.5 2-1.1 0-2.1.1-3.2 0-4.8 0-9.6-.2-14.3-.9-.6-.1-1.2-.1-1.8-.2l-1.8-.4-3.5-.7c-1.2-.3-2.3-.7-3.4-1l-1.6-.5c.5-.5.9-1.2 1.2-1.8.3-.7.6-1.5.7-2.3-.6.6-1 1.3-1.4 2-.3.7-.6 1.3-.7 2.1-.6-.2-1.1-.4-1.6-.6-1.5-.6-2.9-1.2-4.3-1.9.3-.3.6-.5.8-.8.3-.3.5-.6.8-.9.5-.7.9-1.4 1.2-2.2-.7.5-1.3 1.1-1.8 1.7-.2.3-.5.7-.7 1.1-.2.3-.3.7-.4 1.1-2.2-1.1-4.2-2.5-6-4.1.8-.4 1.4-.9 2-1.5.6-.6 1.2-1.3 1.6-2.1-.8.4-1.5 1-2.1 1.6-.6.6-1.1 1.2-1.5 2-.5-.5-1.1-.9-1.6-1.4-.5-.4-.8-.9-1.2-1.3-.4-.4-.8-.9-1.2-1.4-.7-1-1.4-1.9-2-3-1.2-2.1-2.1-4.3-2.4-6.7.2 2.4 1.1 4.7 2.2 6.9.5 1.1 1.2 2.1 1.9 3.1.3.5.8.9 1.1 1.4.4.4.8 1 1.2 1.4 3.4 3.5 7.6 6.1 12.1 7.9.6.2 1.1.5 1.7.7l1.7.6c1.2.4 2.3.8 3.5 1.1l3.6.8 1.8.4c.6.1 1.2.2 1.8.2 4.8.7 9.6.9 14.5 1 9.6 0 19.4-1.3 28.4-5 4.5-1.9 8.7-4.3 12.3-7.6 1.8-1.7 3.4-3.4 4.7-5.5 1.4-2 2.5-4.1 3.1-6.5-1.6 4.6-4.7 8.4-8.2 11.6-3.6 3.2-7.8 5.5-12.3 7.3-6.6 2.6-13.6 3.9-20.7 4.4.1-.6.1-1.1 0-1.6-.1-.6-.3-1.2-.6-1.8-.2.7-.2 1.3-.1 1.9.1.5.2 1.1.5 1.6-1.3.1-2.7.1-4 .2.2-.7.2-1.4.2-2.1-.1-.6-.2-1.2-.5-1.9h1.2l3.3-.2c1.1-.1 2.2-.1 3.3-.3l3.3-.5c4.4-.6 8.8-1.9 12.9-3.5 4.1-1.7 8-4.2 11.2-7.4.4-.4.8-.8 1.1-1.3l1.1-1.3.9-1.4.5-.7.4-.8c1-1.8 1.7-3.7 2.1-5.8 2.9.9 5.8 2.1 8.6 3.3l9 3.9c6 2.7 11.9 5.5 17.7 8.6.7.4 1.5.8 2.1 1.2.3.1.6.5.9.7.3.3.4.6.6.9.6 1.4.9 3 1.2 4.6.5 3.2.9 6.5 1.2 9.8.5 6.4.7 12.9.8 19.3l-22.5.1c.3-1.7.5-3.3.8-4.9.3-1.7.6-3.4 1-5 .7-3.3 1.5-6.7 2.7-9.8 1.1-3.1 3.2-5.9 5.3-8.6 2.2-2.6 4.6-5.1 7.1-7.4-2.8 2-5.3 4.4-7.6 6.9-1.2 1.3-2.2 2.6-3.2 4.1-1 1.4-1.8 3-2.4 4.6-1.2 3.2-2 6.6-2.5 10-.5 3.4-.9 6.7-1 10.1l-19.9.1-21.7-.6zm16.2-41.2c.3.7.7 1.2 1.2 1.7s1 .9 1.7 1.2c-.3-.7-.7-1.2-1.2-1.7s-1-1-1.7-1.2z" fill="#184f58" stroke-width="none" opacity="1"></path></g><g id="svga-group-head" transform="matrix(1,0,0,1,0,0)"><g id="svga-group-ears-left-move" transform="matrix(1,0,0,1,0,0)"><g id="svga-group-ears-left"><path id="SvgjsPath11300" d="M68.8 87.48s-4.2-8.27-8.66-11.42c-4.46-3.15-9.84-3.15-9.84-3.15s-3.02 2.1-1.97 12.6c0 0 4.46 10.76 12.47 14.7 0 0 5.77 1.31 8.66.66-.01-.01 2.09-6.18-.66-13.39z" fill="#f0c7b1" stroke-width="none" opacity="1"></path><path id="SvgjsPath11301" d="M67.88 90.76s-3.67-7.87-6.04-9.84c-2.36-1.97-7.87-5.12-9.32-3.28-1.44 1.84-1.57 7.61-1.57 7.61s1.57 4.59 6.3 7.09c4.72 2.49 10.37 2.76 10.37 2.76l.26-4.34z" fill="#e1ac8f" stroke-width="none" opacity="1"></path><path id="SvgjsPath11302" d="M47.99 82.25c.02 1.09.09 2.19.17 3.28v.02l.01.03a39.54 39.54 0 0 0 2.2 4.42c.82 1.43 1.75 2.79 2.75 4.11 1.02 1.3 2.15 2.51 3.38 3.64 1.25 1.1 2.62 2.07 4.12 2.83l.04.02.05.01c1.45.31 2.89.55 4.36.7.73.07 1.47.13 2.22.13.74-.01 1.5-.05 2.25-.23l.19-.05.05-.17c.33-1.14.5-2.27.58-3.42.08-1.15.08-2.3-.01-3.44a23.99 23.99 0 0 0-.52-3.38c-.23-1.12-.59-2.2-.99-3.27-.94-1.86-2.02-3.63-3.13-5.4-1.14-1.74-2.35-3.46-3.85-4.95-.75-.74-1.6-1.4-2.5-1.96-.91-.56-1.88-.98-2.87-1.35-1.99-.73-4.08-1.08-6.19-1.12h-.08l-.04.04c-.89.85-1.22 1.93-1.54 2.98-.29 1.06-.45 2.16-.54 3.25-.09 1.09-.13 2.18-.11 3.28zm.33-3.27c.11-1.08.28-2.15.59-3.19.15-.52.35-1.02.59-1.49.23-.44.53-.89.86-1.18 2.01.12 4.01.6 5.9 1.29 1.9.73 3.7 1.74 5.19 3.13 1.5 1.39 2.82 2.99 4.04 4.67 1.22 1.67 2.29 3.46 3.28 5.28.37 1.07.71 2.15.91 3.27.24 1.11.32 2.24.36 3.37.04 1.13-.04 2.26-.19 3.37-.14 1.04-.35 2.09-.65 3.07-.62.1-1.26.12-1.91.1-.71-.01-1.43-.06-2.14-.14-1.41-.15-2.83-.4-4.21-.7-1.39-.74-2.72-1.62-3.93-2.66-1.2-1.07-2.33-2.24-3.35-3.49a42.391 42.391 0 0 1-2.82-3.96c-.86-1.37-1.66-2.79-2.33-4.25l-.16-1.59c-.05-.54-.06-1.09-.09-1.63-.04-1.1-.03-2.18.06-3.27z" fill="#e1ac8f" stroke-width="none" opacity="1"></path><path id="SvgjsPath11303" d="M52.2 80.53c.18-.69.39-1.36.67-2.03.07-.16.16-.33.26-.48.11-.15.23-.33.48-.37.45.02.72.22 1.06.37a18.3 18.3 0 0 1 3.48 2.44c.53.48 1.03 1.01 1.42 1.66.18.33.36.69.38 1.14.01.25-.01.36-.01.54l.01.51c.16 2.77.58 5.56.83 8.36l-.07.01c-.34-1.37-.61-2.75-.86-4.13-.26-1.39-.44-2.78-.55-4.2l-.03-.54v-.51c0-.26-.13-.56-.28-.84-.31-.57-.74-1.11-1.21-1.61-.94-1-2.01-1.94-3.22-2.61-.29-.16-.65-.33-.91-.33-.23.06-.41.43-.53.73-.26.63-.39 1.33-.52 2.01-.23 1.37-.39 2.77-.48 4.15-.02.34-.04.7-.02 1.01-.01.17.21.46.41.71.42.52.91 1.02 1.4 1.5.81.79 1.65 1.57 2.5 2.33.09-.91.18-1.82.24-2.74.04-.59.07-1.17.08-1.75.01-.53.01-1.07-.06-1.58-.15-.02-.33-.03-.5-.02a4.1 4.1 0 0 0-.69.1c-.46.1-.91.25-1.35.43l-.03-.07c.41-.25.85-.46 1.32-.62.23-.08.47-.15.72-.19.26-.04.49-.07.79-.01l.11.02.03.13c.15.61.18 1.21.22 1.81.02.6.02 1.19.01 1.79-.03 1.19-.08 2.37-.19 3.56l-.07.75-.58-.49c-1.08-.92-2.11-1.87-3.11-2.88-.49-.51-.98-1.03-1.43-1.61-.11-.15-.22-.3-.32-.47-.05-.09-.1-.18-.14-.29-.05-.11-.07-.28-.07-.37-.01-.39.03-.74.06-1.1.14-1.45.39-2.84.75-4.22z" fill="#c27b55" stroke-width="none" opacity="1"></path></g></g><g id="svga-group-ears-right-move" transform="matrix(1,0,0,1,0,0)"><g id="svga-group-ears-right"><path id="SvgjsPath11304" d="M131.2 87.48s4.2-8.27 8.66-11.42c4.46-3.15 9.84-3.15 9.84-3.15s3.02 2.1 1.97 12.6c0 0-4.46 10.76-12.47 14.7 0 0-5.77 1.31-8.66.66.01-.01-2.09-6.18.66-13.39z" fill="#f0c7b1" stroke-width="none" opacity="1"></path><path id="SvgjsPath11305" d="M132.12 90.76s3.67-7.87 6.04-9.84c2.36-1.97 7.87-5.12 9.32-3.28 1.44 1.84 1.57 7.61 1.57 7.61s-1.57 4.59-6.3 7.09c-4.72 2.49-10.37 2.76-10.37 2.76l-.26-4.34z" fill="#e1ac8f" stroke-width="none" opacity="1"></path><path id="SvgjsPath11306" d="M151.91 78.96c-.09-1.09-.25-2.18-.54-3.25-.32-1.05-.65-2.13-1.54-2.98l-.04-.04h-.08c-2.11.04-4.21.39-6.19 1.12-.99.37-1.96.79-2.87 1.35-.9.56-1.75 1.22-2.5 1.96-1.5 1.49-2.71 3.21-3.85 4.95-1.11 1.77-2.18 3.54-3.13 5.4-.39 1.07-.76 2.15-.99 3.27a23.99 23.99 0 0 0-.52 3.38c-.1 1.14-.09 2.29-.01 3.44s.25 2.28.58 3.42l.05.17.19.05c.75.18 1.51.22 2.25.23.75 0 1.48-.05 2.22-.13 1.47-.15 2.91-.39 4.36-.7l.05-.01.04-.02c1.5-.76 2.87-1.73 4.12-2.83 1.23-1.12 2.36-2.34 3.38-3.64 1-1.31 1.93-2.68 2.75-4.11.82-1.43 1.57-2.89 2.2-4.42l.01-.03v-.02c.07-1.09.14-2.18.17-3.28.01-1.09-.03-2.18-.11-3.28zm-.16 3.28c-.03.54-.04 1.09-.09 1.63l-.16 1.59c-.67 1.47-1.47 2.89-2.33 4.25-.87 1.37-1.8 2.7-2.82 3.96a29.855 29.855 0 0 1-3.35 3.49 21.554 21.554 0 0 1-3.93 2.66c-1.38.3-2.8.54-4.21.7-.71.08-1.43.13-2.14.14-.64.01-1.29 0-1.91-.1-.3-.98-.51-2.03-.65-3.07-.15-1.11-.22-2.24-.19-3.37.04-1.13.12-2.26.36-3.37.2-1.12.54-2.2.91-3.27.98-1.82 2.05-3.61 3.28-5.28 1.21-1.67 2.54-3.28 4.04-4.67 1.49-1.39 3.28-2.4 5.19-3.13 1.88-.69 3.89-1.17 5.9-1.29.34.29.63.74.86 1.18.25.47.44.97.59 1.49.3 1.03.48 2.11.59 3.19.08 1.1.09 2.18.06 3.27z" fill="#e1ac8f" stroke-width="none" opacity="1"></path><path id="SvgjsPath11307" d="M147.8 80.53c-.18-.69-.39-1.36-.67-2.03-.07-.16-.16-.33-.26-.48-.11-.15-.23-.33-.48-.37-.45.02-.72.22-1.06.37a18.3 18.3 0 0 0-3.48 2.44c-.53.48-1.03 1.01-1.42 1.66-.18.33-.36.69-.38 1.14-.01.25.01.36.01.54l-.01.51c-.16 2.77-.58 5.56-.83 8.36l.07.01c.34-1.37.61-2.75.86-4.13.26-1.39.44-2.78.55-4.2l.03-.54v-.51c0-.26.13-.56.28-.84.31-.57.74-1.11 1.21-1.61.94-1 2.01-1.94 3.22-2.61.29-.16.65-.33.91-.33.23.06.41.43.53.73.26.63.39 1.33.52 2.01.23 1.37.39 2.77.48 4.15.02.34.04.7.02 1.01.01.17-.21.46-.41.71-.42.52-.91 1.02-1.4 1.5-.81.79-1.65 1.57-2.5 2.33-.09-.91-.18-1.82-.24-2.74-.04-.59-.07-1.17-.08-1.75-.01-.53-.01-1.07.06-1.58.15-.02.33-.03.5-.02.23.01.46.05.69.1.46.1.91.25 1.35.43l.03-.07c-.41-.25-.85-.46-1.32-.62a4.23 4.23 0 0 0-.72-.19c-.26-.04-.49-.07-.79-.01l-.11.02-.03.13c-.15.61-.18 1.21-.22 1.81-.02.6-.02 1.19-.01 1.79.03 1.19.08 2.37.19 3.56l.07.75.58-.49c1.08-.92 2.11-1.87 3.11-2.88.49-.51.98-1.03 1.43-1.61.11-.15.22-.3.32-.47.05-.09.1-.18.14-.29.05-.11.07-.28.07-.37.01-.39-.03-.74-.06-1.1a26.8 26.8 0 0 0-.75-4.22z" fill="#c27b55" stroke-width="none" opacity="1"></path></g></g><g id="svga-group-faceshape-wrap"><g id="svga-group-faceshape-single"><path id="SvgjsPath11384" d="M140.4 54.9c-2.2-10-6.3-16-15.2-20.8-9.3-5-25.2-4.8-25.2-4.8s-15.9-.2-25.2 4.8c-8.8 4.8-13 10.8-15.2 20.8-.9 4 0 13.6 0 13.6S62 90.8 62 97.3s-.8 25.8.6 27.9c1.4 2.1 23.7 23.4 26.7 25.1 3 1.6 18.4 1.6 21.4 0s25.3-23 26.7-25.1c1.4-2.1.6-21.4.6-27.9s2.3-28.9 2.3-28.9 1-9.5.1-13.5z" fill="#f0c7b1" stroke-width="none" opacity="1"></path><path id="SvgjsPath11385" d="M140.4 54.9c-2.2-10-6.3-16-15.2-20.8-9.3-5-25.2-4.8-25.2-4.8s-15.9-.2-25.2 4.8c-8.8 4.8-13 10.8-15.2 20.8-.9 4 0 13.6 0 13.6S62 90.8 62 97.3s-.8 25.8.6 27.9c1.4 2.1 23.7 23.4 26.7 25.1 3 1.6 18.4 1.6 21.4 0s25.3-23 26.7-25.1c1.4-2.1.6-21.4.6-27.9s2.3-28.9 2.3-28.9 1-9.5.1-13.5zm0 10.1c-.1 1.1-.2 2.3-.3 3.4-.8 6.8-1.6 13.6-2.3 20.4-.2 1.7-.3 3.4-.5 5.1-.1 1.7-.2 3.5-.2 5.2V114.4c0 1.7-.1 3.4-.1 5.1 0 .8-.1 1.7-.2 2.5 0 .4-.1.8-.1 1.2 0 .4-.1.8-.2 1.1l-.1.2-.3.4-.8.9-1.8 1.8c-2.4 2.4-4.9 4.8-7.3 7.1-2.5 2.3-4.9 4.7-7.4 7-1.2 1.2-2.5 2.3-3.8 3.4-1.3 1.1-4.41 3.72-4.75 3.97-.21.15-.45.26-.7.32-.61.15-1.86.44-2.45.51-1.6.2-3.3.3-5 .4-1.7.1-3.4.1-5 0-1.7-.1-5.7-.5-6.1-.6s-1.32-.32-1.8-.8l-1-.8c-1.3-1.1-2.6-2.2-3.8-3.3-2.5-2.2-5.1-4.5-7.6-6.9-2.5-2.3-5-4.6-7.5-7-1.2-1.2-2.5-2.3-3.7-3.5l-.9-.9-.9-.9c-.2-.2-.85-.55-1.05-1.81-.1-.8-.15-1.59-.25-2.49-.1-.8-.1-1.7-.1-2.5-.1-1.7-.1-3.4-.1-5.1V98.4c0-1.7-.1-3.4-.2-5.1-.5-6.8-1.1-13.6-1.7-20.4l-.1-2.9c-.1-.9-.2-1.7-.2-2.5-.1-1.7-.2-3.4-.2-5.1 0-1.7 0-3.4.1-5 .1-.8.2-1.6.4-2.4.2-.8 2.3-6.8 2.5-7.1.7-1.5 1.5-2.9 2.5-4.3 1-1.3 2.1-2.5 3.3-3.7 1.2-1.1 2.5-2.1 3.9-3s2.9-1.7 4.3-2.4c.4-.2 2.2-.9 2.2-.9s2-.7 2.4-.8c3.2-.9 6.5-1.5 9.9-1.9 3.3-.4 6.7-.6 10.1-.6 1.7 0 3.4.1 5.1.2.8 0 1.7.1 2.5.2s1.7.2 2.5.3c3.3.4 6.7 1 9.9 2.1 1.6.6 3.1 1.2 4.6 2 .4.2.7.4 1.1.6l1.1.7c.7.5 1.4.9 2.1 1.4 2.7 2 5 4.6 6.6 7.6.8 1.5 1.5 3.1 2 4.7.6 1.6.9 3.29 1.3 4.89.2 1.1.31 2.5.31 3.7 0 1.11-.11 5.21-.21 6.31z" fill="#c27b55" stroke-width="none" opacity="1"></path></g></g><g id="svga-group-mouth-single-move" transform="matrix(1,0,0,1,0,0)"><g id="svga-group-mouth-single"><path id="SvgjsPath11488" d="M85.29 125.97s-.19-2.85.95-4.85c1.24-2 3.99-1.81 7.13-.29s10.22-.23 14.6-.14c4.37.1 6.93 3.91 5.69 7.14a11.438 11.438 0 0 1-10.46.28c-.71.41-3.02 1.61-6.08 1.17a9.535 9.535 0 0 1-4.91-2.3c-.82.16-2.12.32-3.67.07a9.95 9.95 0 0 1-3.25-1.08z" fill="#da7c87" stroke-width="none" opacity="1"></path><path id="SvgjsPath11489" d="M110.13 133.79c-3-.76-6.47-1.05-9.78-1.24-4.42-.19-9.3.67-12.77-1.52-.32-.19-.63 0-.63.19.63 2.09 4.42 2.28 7.41 2.28 5.36 0 10.25.48 15.61.76.47.1.63-.37.16-.47z" fill="#d19271" stroke-width="none" opacity="1"></path><path id="SvgjsPath11490" d="M116.26 125.1c-3.26 3.66-8.18 4.41-12.74 2.96.34-.33.62-.7.83-1.13.14-.29-.21-.59-.46-.35-4.06 3.79-9.26 2.75-12.66-1.29-.16-.19-.43.05-.33.25.24.48.54.91.87 1.31-3.79-.03-6.58-.59-9.22-3.63-.11-.12-.34.01-.28.16 1.24 3.42 6.56 5.31 9.85 3.89a8.108 8.108 0 0 0 5.23 2.57c1.75.17 4.12-.23 5.69-1.39 3.85 2.43 11.54 1.26 13.44-3.18.06-.13-.1-.3-.22-.17z" fill="#cb5f6c" stroke-width="none" opacity="1"></path></g></g><g id="svga-group-eyes-left-move" transform="matrix(1,0,0,1,0,0)"><g id="svga-group-eyes-left"><g id="svga-group-eyesback-left"><path id="SvgjsPath11943" d="M80.2 74.2c7.5 0 13.5 5.8 13.5 13s-6 13-13.5 13-13.5-5.8-13.5-13 6-13 13.5-13z" fill="#ffffff" stroke-width="none" opacity="1"></path></g><g id="svga-group-eyesiriswrapper-left" transform="matrix(1,0,0,1,0,0)"><g id="svga-group-eyesiriscontrol-left" transform="matrix(1,0,0,1,0,0)"><g id="svga-group-eyesiris-left"><path id="SvgjsPath11419" d="M80.2 81.6c3.1 0 5.6 2.5 5.6 5.6s-2.5 5.6-5.6 5.6-5.6-2.5-5.6-5.6 2.5-5.6 5.6-5.6z" fill="#4e60a3" stroke-width="none" opacity="1"></path><path id="SvgjsPath11420" d="M80.2 82.7c2.5 0 4.5 2 4.5 4.5s-2 4.5-4.5 4.5-4.5-2-4.5-4.5 2-4.5 4.5-4.5z" fill="#000000" stroke-width="none" opacity="1"></path><path id="SvgjsPath11421" d="M74.6 87.2c0 .9.2 1.8.6 2.6.8.5 1.8.8 2.8.8 2.9 0 5.3-2.4 5.3-5.3 0-1.2-.4-2.4-1.1-3.3-.6-.2-1.3-.4-2-.4-3.1 0-5.6 2.5-5.6 5.6z" fill="#6777b2" stroke-width="none" opacity="1"></path><path id="SvgjsPath11422" d="M75.7 87.2c0 1.3.5 2.4 1.4 3.3.3.1.6.1 1 .1 2.9 0 5.3-2.4 5.3-5.3 0-.5-.1-1.1-.2-1.6-.8-.7-1.8-1.1-2.9-1.1-2.6.1-4.6 2.1-4.6 4.6z" fill="#1e1e1e" stroke-width="none" opacity="1"></path><path id="SvgjsPath11423" d="M77.7 84.8c.6-.7 1.6-.9 2-.4.5.5.4 1.4-.3 2.1s-1.6.9-2 .4c-.4-.5-.3-1.4.3-2.1z" fill="#2b2b2b" stroke-width="none" opacity="1"></path></g></g></g><g id="svga-group-eyesfront-left"><path id="SvgjsPath11951" d="M80.2 73.7c-7.8 0-14.1 6.1-14.1 13.6s6.3 13.6 14.1 13.6 14.1-6.1 14.1-13.6S88 73.7 80.2 73.7zm9.4 11.5c-.2.3-1.4 4.3-3.6 6.2-2.2 1.9-11.4 3.9-14 3.1-2.6-.8-2.8-6.5-3.5-8.1 0 0 22.3-3.4 21.1-1.2z" fill="#f0c7b1" stroke-width="none" opacity="1"></path><path id="SvgjsPath11952" d="M81.6 96.7c-5.6.5-8.5.4-8.5.4s9 2.2 14.6-2c1.2-.9 2.4-7.5 2.4-7.5s-1.3 5.2-3 7.1c-.9 1.3-3.8 1.9-5.5 2z" fill="#d19271" stroke-width="none" opacity="1"></path><path id="SvgjsPath11953" d="M74.4 94.7c1.3-.1 2.6-.2 3.8-.5 1.3-.2 2.5-.5 3.8-.9l1.8-.6c.6-.2 1.2-.5 1.8-.9.6-.4 1-.9 1.4-1.4.4-.5.7-1.1 1-1.7.6-1.2 1.1-2.3 1.5-3.6.1-.1.1-.2 0-.3-.1-.1-.1-.1-.2-.1h.2l2.9-2.3s-3.3-1.2-4.7-1.5c-1.3-.3-13.6 3.1-14.7 3.3s-5.2 2.5-5.2 2.5.2 0 .6-.1c.2.5.3 1.1.5 1.7.1.6.3 1.3.4 1.9s.3 1.2.6 1.9c.2.6.5 1.2.9 1.7.2.2.5.5.8.6.3.2.6.2.9.3h1.9zm-2.8-.5c-.3-.2-.5-.3-.7-.6-.8-1-1.2-2.3-1.4-3.5-.1-.6-.2-1.3-.4-1.9-.1-.6-.2-1.1-.4-1.7 3.5-.4 15.9-1.8 16.9-1.8.9-.1 2.9 0 3.7 0 .1 0 .2.1.3.2s.1.2 0 .3c-.5 1.2-.9 2.4-1.6 3.5-.3.6-.7 1.1-1.1 1.6-.4.5-.9.9-1.4 1.3-1.1.7-2.3 1.1-3.5 1.4-1.2.4-2.5.7-3.7 1-1.3.3-2.5.5-3.8.6-.6 0-1.3.1-1.9 0-.4-.2-.7-.2-1-.4z" fill="#000000" stroke-width="none" opacity="1"></path></g></g></g><g id="svga-group-eyes-right-move" transform="matrix(1,0,0,1,0,0)"><g id="svga-group-eyes-right"><g id="svga-group-eyesback-right"><path id="SvgjsPath11944" d="M119.8 74.2c7.5 0 13.5 5.8 13.5 13s-6 13-13.5 13-13.5-5.8-13.5-13 6-13 13.5-13z" fill="#ffffff" stroke-width="none" opacity="1"></path></g><g id="svga-group-eyesiriswrapper-right" transform="matrix(1,0,0,1,0,0)"><g id="svga-group-eyesiriscontrol-right" transform="matrix(1,0,0,1,0,0)"><g id="svga-group-eyesiris-right"><path id="SvgjsPath11424" d="M119.8 82.3c2.7 0 4.9 2.2 4.9 4.9s-2.2 4.9-4.9 4.9-4.9-2.2-4.9-4.9 2.2-4.9 4.9-4.9z" fill="#4e60a3" stroke-width="none" opacity="1"></path><path id="SvgjsPath11425" d="M119.8 83.2c2.2 0 4 1.8 4 4s-1.8 4-4 4-4-1.8-4-4 1.8-4 4-4z" fill="#000000" stroke-width="none" opacity="1"></path><path id="SvgjsPath11426" d="M114.9 87.2c0 .8.2 1.6.6 2.3.7.4 1.5.7 2.4.7 2.6 0 4.6-2.1 4.6-4.6 0-1.1-.4-2.1-1-2.9-.5-.2-1.1-.3-1.7-.3-2.7-.1-4.9 2.1-4.9 4.8z" fill="#6777b2" stroke-width="none" opacity="1"></path><path id="SvgjsPath11427" d="M115.8 87.2c0 1.1.5 2.2 1.2 2.9.3.1.6.1.8.1 2.6 0 4.6-2.1 4.6-4.6 0-.5-.1-.9-.2-1.4-.7-.6-1.6-.9-2.5-.9-2.1-.1-3.9 1.7-3.9 3.9z" fill="#1e1e1e" stroke-width="none" opacity="1"></path><path id="SvgjsPath11428" d="M117.6 86.1c.6-.6 1.4-.8 1.8-.4.4.4.3 1.2-.2 1.8s-1.4.8-1.8.4c-.4-.4-.3-1.2.2-1.8z" fill="#2b2b2b" stroke-width="none" opacity="1"></path></g></g></g><g id="svga-group-eyesfront-right"><path id="SvgjsPath11954" d="M119.8 73.7c-7.8 0-14.1 6.1-14.1 13.6s6.3 13.6 14.1 13.6 14.1-6.1 14.1-13.6-6.3-13.6-14.1-13.6zm9.8 18.7c-2.6.7-12.7.7-14.9-1s-3.5-5.2-3.6-5.4c-1.2-1.9 21.1 1.1 21.1 1.1-.7 1.4 0 4.7-2.6 5.3z" fill="#f0c7b1" stroke-width="none" opacity="1"></path><path id="SvgjsPath11957" d="M127.7 85.1c-1.1-.2-12.6-.9-14-.6s-5.5-1.1-5.5-1.1l2.9 2.2h.2s-.1 0-.1.1c-.1.1-.1.2 0 .3.2.5.5 1.1.7 1.6.3.5.5 1 .8 1.5.3.5.7 1 1 1.4l.6.6.3.3c.1.1.2.2.4.2.5.3 1.1.4 1.7.6.6.1 1.2.2 1.7.3 1.2.2 2.3.2 3.5.2h3.5c1.2-.1 2.3-.1 3.5-.3.6-.1 1.2-.2 1.7-.6.5-.4.8-.9 1-1.5.2-.6.3-1.2.4-1.7.1-.5.1-1.1.3-1.5.7.1 1.1.1 1.1.1s-3.6-1.7-5.7-2.1zm4 3.7c-.1.6-.1 1.2-.3 1.7-.2.6-.4 1.1-.9 1.4-.4.4-1 .5-1.6.6-2.3.3-4.7.3-7 .2-1.2-.1-2.3-.2-3.5-.3-1.1-.2-2.3-.3-3.3-.8-.1-.1-.2-.1-.4-.2l-.3-.3-.6-.6c-.4-.4-.8-.9-1.1-1.4-.7-1-1.1-2-1.6-3.1-.1-.1-.1-.2 0-.3.1-.1.1-.1.2-.1.8 0 2.9-.1 3.8 0 .9.1 12.7 1.2 16.9 1.6-.2.6-.3 1.1-.3 1.6z" fill="#000000" stroke-width="none" opacity="1"></path><path id="SvgjsPath11958" d="M114.7 93.6c-1.8-1.6-3.7-5.3-3.7-5.3s1.7 5 2.6 6.1c.9 1.1 10.5 2.5 11.5 2.4s-3.4-.8-4.6-1.1c-1.2-.3-4.7-1.1-5.8-2.1zM110 81l-.9.6 16.8 1.1L110 81z" fill="#d19271" stroke-width="none" opacity="1"></path></g></g></g><g id="svga-group-facehighlight-single"></g><g id="svga-group-eyebrows-left-move" transform="matrix(1,0,0,1,0,0)"><g id="svga-group-eyebrows-left-rotate" transform="matrix(1,1.7453292519943295e-9,-1.7453292519943295e-9,1,1.2391838311032188e-7,-1.3753196981269866e-7)"><g id="svga-group-eyebrows-left"><path id="SvgjsPath11268" d="M92.8 69.5s-.2 3.9-1 7.1c0 0-16.1-4.6-18-4.8-1.9-.2-8.4 4.1-8.4 4.1l6.5-9.8 3.8.3-.6-.9 8 1.9 7.5 1.2.5 2.8.4-2.8.5 2.8.8-1.9z" fill="#2a232b" stroke-width="none" opacity="1"></path><path id="SvgjsPath11269" d="m92.8 69.5-.1.1c-.1.3-.2.5-.4.8-.1.2-.2.4-.3.7l-.4-2.5-.2-.9-.2.9-.3 1.6-.3-1.6v-.2h-.2l-3.9-.7-1.9-.3c-.6-.1-1.3-.2-1.9-.3-2.6-.6-5.1-1.2-7.7-1.8l-.8-.2.5.8.3.1-3.1-.2h-.2l-.1.1c-1.1 1.7-2.1 3.3-3.2 5l-3.2 5-.4.6.6-.4c1.9-1.3 3.9-2.5 6-3.4.5-.2 1.1-.4 1.6-.6.3-.1.5-.1.8-.1l.4.1.4.1c1.1.3 2.3.6 3.4.9 2.3.7 4.5 1.3 6.8 1.9 2.3.6 4.5 1.2 6.8 1.8l.2.1v-.2c.3-1.2.4-2.4.6-3.6.1-.6.1-1.2.2-1.8 0-.3 0-.6.1-.9V69.6l.1-.1c0 .1 0 0 0 0zm-.1.4-.1.4-.1.9-.3 1.8c-.2 1.1-.4 2.2-.7 3.3-2.2-.7-4.4-1.3-6.6-2-2.3-.7-4.5-1.3-6.8-1.8-1.1-.3-2.3-.5-3.4-.8l-.4-.1-.4-.1c-.3 0-.6 0-.9.1-.6.2-1.1.4-1.6.6-1.9.9-3.7 1.9-5.5 3.1l2.9-4.2c1.1-1.6 2.2-3.2 3.2-4.7l3.6.3.7.1-.4-.7-.1-.1c2.3.6 4.6 1.1 6.9 1.6l3.9.6 3.7.5.5 2.5.2 1.2.2-1.2.3-2 .4 1.9.1.3.1-.3.3-.9c.1-.3.2-.6.3-.8v.5zm-2.9 4.7c0-.8-.1-1.7-.2-2.5-.1-.4-.1-.8-.2-1.2s-.2-.8-.4-1.2c.1.4.1.8.1 1.2 0 .4.1.8.2 1.2.1.8.3 1.7.5 2.5zm-1.2-1.7c-.2-.3-.3-.7-.5-1l-.5-1-1-1.9-.2-.5v.6c0 1.6 0 3.2.1 4.8l.3-.1c-.3-.4-.6-.9-.9-1.3l-.9-1.2c-.3-.4-.6-.8-1-1.2-.3-.4-.7-.8-1.1-1.1.3.4.7.8 1 1.2l.9 1.2c.3.4.6.8.9 1.3.3.4.6.9.8 1.3l.3.5v-.6c0-1.6-.1-3.2-.1-4.8l-.2.1 1.1 1.9.6.9c0 .3.2.6.4.9z" fill="#1b141c" stroke-width="none" opacity="1"></path></g></g></g><g id="svga-group-eyebrows-right-move" transform="matrix(1,0,0,1,0,0)"><g id="svga-group-eyebrows-right-rotate" transform="matrix(1,1.7453292519943295e-9,-1.7453292519943295e-9,1,1.2705996255135688e-7,-2.123193070246998e-7)"><g id="svga-group-eyebrows-right"><path id="SvgjsPath11270" d="M107.2 73.2s.9 3.1 2.3 5.5c0 0 14.9-6.1 16.8-6.5 1.9-.4 9 2 9 2l-8.2-6.9-3.6.8.4-.8-7.5 2.7-7.1 2v2.3l-.9-2.2v2.3l-1.2-1.2z" fill="#2a232b" stroke-width="none" opacity="1"></path><path id="SvgjsPath11271" d="m135.4 74.1-4-3.5c-1.3-1.2-2.7-2.3-4.1-3.5l-.1-.1h-.1l-3 .6.1-.2.4-.7-.8.3c-2.4.8-4.8 1.7-7.2 2.6l-1.8.6-1.8.6-3.7 1.1h-.2v1.5l-.6-1.3-.3-.7v.7l.1 2c-.1-.2-.3-.3-.4-.5-.2-.2-.3-.4-.5-.6l-.1-.1V73.2l.1.2.1.4c.1.2.2.5.2.7.2.5.3.9.5 1.4.3.9.8 1.9 1.2 2.8l.1.2.2-.1c2.1-.8 4.2-1.6 6.4-2.5 2.1-.8 4.2-1.7 6.3-2.5 1.1-.4 2.1-.8 3.2-1.2l.4-.1.4-.1c.3-.1.5-.1.8-.1.6 0 1.1.1 1.7.2 2.2.4 4.4 1.1 6.6 1.8l.6.2-.7-.4zm-8.3-2.1c-.3 0-.6 0-.9.1l-.4.1-.4.1c-1.1.3-2.2.7-3.2 1.1-2.2.8-4.3 1.6-6.4 2.4-2.1.8-4.1 1.7-6.1 2.6-.5-.8-.9-1.7-1.2-2.5-.2-.4-.4-.9-.6-1.4l-.3-.7-.1-.3-.1-.2v-.1c.2.2.3.4.4.6.2.2.3.4.5.7l.2.2V72.8l.6 1.5.4.9v-3.1l3.6-1c1.2-.3 2.5-.7 3.7-1 2.2-.8 4.3-1.5 6.5-2.3v.1l-.3.6.7-.2 3.5-.8c1.3 1.1 2.7 2.2 4 3.3l3.6 2.9c-2-.6-3.9-1.2-6-1.6-.6.1-1.1 0-1.7-.1zm-16 4.7c-.2-.7-.2-1.3-.2-2v-1c0-.3 0-.7.2-1 0 .3.1.7.1 1s.1.7.1 1c-.1.7-.1 1.4-.2 2zm.9-1.5c.1-.3.2-.6.3-.8l.3-.8.6-1.7.2-.4.1.4c.3 1.3.5 2.6.8 3.8h-.3l.6-1.2c.2-.4.4-.8.7-1.1.2-.4.5-.7.7-1.1s.5-.7.8-1c-.3.3-.5.7-.7 1.1-.2.4-.4.7-.7 1.1l-.6 1.2-.6 1.2-.2.4-.1-.4c-.3-1.3-.5-2.6-.8-3.8h.3l-.7 1.6-.4.8c0 .2-.1.4-.3.7z" fill="#1b141c" stroke-width="none" opacity="1"></path></g></g></g><g id="svga-group-beardwrap"><g id="svga-group-beard-single-move" transform="matrix(1,0,0,1,0,0)"><g id="svga-group-beard-single"><path id="SvgjsPath11677" d="M123.7 115.7c-4.9-3.5-12.5 1.2-16.6 1.8-4.1.6-10 .1-10 .1s-5.9-1.2-13.2-3.7c-3.1-1.1-6-1.3-9.2 1.8-3.2 3.1-4.9 8.7-3.9 15.6l.7-1.2s-.3 9.7 2.5 14.5l.8-1.9s.7 4.3 6.6 11.2c3.7 4.5 11.7 5.4 15.5 5.6l-.2-1.4s3.5 2.6 10.3.4v.6s11.1-.1 16.4-12.6l.1 1.8s2.2-4.6 3.8-12c1.6-7.6 1.2-17.2-3.6-20.6zm-10.1 21.9c-2.5 2.6-10.5 4.7-19.4 3-5.2-1-12.4-6.7-15.6-14.9-1.5-4-1.6-7.5.6-9.1 2.4-1.9 7.6 1.1 11.3 2.3s8.4 1.4 10 1.4c3.8-.2 10.3-1.7 14.4-2.8 3-.8 5.4-1.8 6.9 1.3 1.5 3-2.4 13-8.2 18.8z" fill="#3b3128" stroke-width="none" opacity="1" stroke="none"></path><path id="SvgjsPath11678" d="M127.8 123c-.3-1.4-.7-2.8-1.4-4.1-.7-1.3-1.6-2.5-2.7-3.3-1.9-1.4-4.4-1.5-6.6-1.1-2.3.4-4.4 1.1-6.6 1.8-1.1.3-2.2.7-3.3.9-1.1.2-2.2.2-3.4.2-2.2 0-4.5-.1-6.8-.3-3.2-.7-6.5-1.7-9.7-2.7l-2.4-.8c-.8-.3-1.6-.6-2.4-.8-1.7-.4-3.6-.5-5.2.3-1.6.7-2.9 1.9-4 3.3-1 1.4-1.8 3-2.3 4.6-1 3.3-1 6.8-.5 10.1l.1.5.3-.4.4-.6c0 2.3.2 4.5.4 6.8.2 1.2.4 2.5.7 3.7.3 1.2.7 2.4 1.3 3.5l.2.3.2-.4.6-1.4c.6 2.3 1.8 4.3 3 6.3.7 1.1 1.4 2.1 2.2 3.1.8 1 1.5 2 2.6 2.8 2 1.7 4.4 2.6 6.9 3.3 2.5.7 5 1 7.5 1.1h.6l-.1-.6-.1-.4c.6.3 1.1.4 1.7.6.9.2 1.8.3 2.8.3.9 0 1.8-.1 2.7-.2.4-.1.9-.2 1.3-.3l.6-.2v.5h.5c1.9-.1 3.7-.6 5.5-1.2 1.7-.7 3.4-1.6 4.8-2.8 1.5-1.2 2.8-2.5 3.8-4 .7-1 1.3-2 1.9-3.1l.1 1.8.8-1.7c1.2-2.7 2.1-5.4 2.8-8.2.7-2.8 1.3-5.6 1.5-8.5.3-2.9.2-5.8-.3-8.7zm0 8.6c-.3 2.8-1 5.6-1.8 8.4-.6 2.1-1.3 4.2-2.1 6.2l-.1-1.8-.8 1.9c-.7 1.6-1.6 3.2-2.6 4.6-1 1.4-2.3 2.7-3.7 3.8-1.4 1.1-2.9 2-4.6 2.6-1.5.6-3 1-4.6 1.1V157.6l-.7.2-1.2.4c-.4.1-.8.2-1.3.3-.8.1-1.7.2-2.6.2-.8 0-1.7-.1-2.5-.3-.8-.2-1.7-.5-2.3-.9l-1-.7.2 1.1.1.8c-2.3-.1-4.6-.4-6.8-.9-2.4-.6-4.7-1.5-6.6-3-.9-.7-1.7-1.7-2.5-2.7-.8-1-1.5-2-2.2-3-1.4-2.1-2.6-4.3-3.2-6.6l-.2-.6-.2.6-.7 1.6c-.5-1-.9-2-1.2-3.1-.3-1.2-.5-2.4-.7-3.6-.3-2.4-.4-4.9-.4-7.4v-.6l-.3.6-.4.7c-.4-3.1-.2-6.3.8-9.3.5-1.6 1.3-3.1 2.3-4.3 1-1.2 2.3-2.3 3.8-2.9 1.5-.6 3.1-.6 4.7-.2.8.2 1.6.5 2.4.8l2.4.8c3.2 1 6.5 1.8 9.8 2.6 2.3.2 4.6.2 6.9.1 1.1-.1 2.3-.2 3.4-.4s2.2-.6 3.3-1c2.1-.8 4.3-1.6 6.5-1.9 2.2-.4 4.6-.3 6.5 1 1.2.8 2 2 2.7 3.3.6 1.3 1 2.7 1.3 4.1.5 2.5.5 5.4.2 8.2zm-5.5-13c-.1-.3-.3-.6-.5-.9-.4-.6-.9-1.1-1.6-1.4-.7-.3-1.4-.3-2.1-.2-1.3.2-2.5.6-3.7.9-2.4.6-4.8 1.2-7.2 1.7-2.4.5-4.8 1-7.2 1.1-2.4 0-4.9-.2-7.2-.7-2.4-.4-4.6-1.4-7-2.3-1.2-.4-2.4-.8-3.6-1-.6-.1-1.3-.1-1.9 0-.6.1-1.2.5-1.7.9-.9.9-1.2 2.3-1.2 3.5 0 1.3.2 2.5.5 3.7 1.4 4.8 4.1 9.2 7.8 12.5 1.9 1.6 4 3.1 6.4 3.9 1.2.5 2.5.6 3.7.8 1.2.1 2.5.2 3.7.2 2.5 0 5-.2 7.4-.8 1.2-.3 2.4-.6 3.5-1.1 1.1-.5 2.2-1.1 3.1-1.9 1.8-1.8 3.2-3.8 4.6-5.8s2.5-4.3 3.3-6.6c.4-1.2.8-2.4 1-3.6.1-.3.1-.6.1-1v-1c0-.3-.1-.6-.2-.9zm-.6 2.8c-.1 1.2-.4 2.4-.8 3.5-1.4 4.7-3.9 9-7.3 12.6-.9.8-2 1.4-3.1 1.9-1.1.4-2.3.8-3.5 1-2.4.5-4.9.6-7.3.4-1.2-.1-2.4-.2-3.6-.4-1.2-.2-2.4-.4-3.5-.9-2.2-.9-4.3-2.2-6.1-3.8-1.9-1.6-3.5-3.4-4.9-5.4-1.4-2-2.5-4.2-3.2-6.6-.3-1.2-.6-2.4-.5-3.6.1-1.2.4-2.4 1.2-3.3.4-.4.9-.7 1.5-.8.6-.1 1.2-.1 1.8 0 1.2.2 2.3.6 3.5 1.1 2.3.9 4.5 2 7 2.5 2.4.5 4.9.9 7.4.9 2.5-.1 5-.5 7.4-1 2.4-.5 4.8-1.1 7.2-1.7 1.2-.3 2.4-.7 3.5-.9 1.2-.2 2.1.1 2.8 1.1.2.2.3.5.4.7.1.2.2.5.2.8 0 .3.1.6.1.8-.2.5-.2.8-.2 1.1zm-38.3 21c-.8-1.4-1.4-2.9-1.9-4.5-.1 1.7.4 3.4 1.2 4.9.8 1.5 2.1 2.8 3.6 3.5-1.1-1.2-2.1-2.5-2.9-3.9zm3.2 6.4c-.6-.5-1.2-1-2-1.3.4.7.9 1.3 1.5 1.9.6.5 1.2 1 2 1.3-.4-.8-1-1.3-1.5-1.9z" fill="#2c2219" stroke-width="none" opacity="1" stroke="none"></path></g></g></g><g id="svga-group-mustache-single-move" transform="matrix(1,0,0,1,0,0)"><g id="svga-group-mustache-single"></g></g><g id="svga-group-nose-single-move" transform="matrix(1,0,0,1,0,0)"><g id="svga-group-nose-single"><path id="SvgjsPath11472" d="M109.5 107.91c-1.24.49-2.69.36-3.82.07s-2.48.69-2.95 1.13c-.47.44-1.71 1.71-3.93.91-2.22-.8-2.15-1.57-3.35-1.86-1.2-.29-2.07.66-3.42.29-1.35-.36-1.97-1.38-1.86-2.8.11-1.42.82-3.92 1.48-4.96s10.31-4.3 17.37.43c0 0 1.49 2.39 1.46 4.32s-.14 2.14-.98 2.47z" fill="#f0c7b1" stroke-width="none" opacity="1"></path><path id="SvgjsPath11473" d="M91.66 100.69c-.5 1.38-.97 2.79-1.14 4.22-.08.7-.12 1.45.12 2.05l.09.22c.04.07.09.13.13.2.04.07.09.13.15.19.06.05.1.12.16.16.23.21.53.32.83.39.63.13 1.33.02 2.02-.13l.53-.12.28-.06.15-.03.18-.02c.49-.03.91.14 1.27.31.73.36 1.3.86 1.88 1.29l.21.16c.07.04.12.08.19.12.13.07.27.13.42.17.3.09.63.13.95.12.64-.01 1.28-.21 1.77-.6l.17-.16.21-.2c.14-.13.29-.26.45-.38.31-.24.64-.46 1.01-.64.36-.17.75-.31 1.17-.37a2.43 2.43 0 0 1 1 .07l.29.11c.25.1.61.15.95.17.34.02.69.01 1.04-.03.68-.08 1.4-.27 1.8-.7.19-.19.27-.52.31-.86.04-.34.03-.69-.01-1.05-.14-1.43-.62-2.84-1.24-4.17.8 1.24 1.38 2.63 1.68 4.11.07.37.1.76.09 1.15-.02.39-.08.82-.37 1.2-.28.35-.66.56-1.03.71-.37.15-.75.24-1.14.31-.38.07-.77.09-1.16.09-.4-.01-.78-.04-1.22-.19l-.22-.08c-.07-.01-.13-.03-.2-.03-.14-.02-.29 0-.44.02-.3.05-.61.17-.91.32-.29.16-.58.34-.85.56-.13.11-.26.22-.39.34l-.19.18-.24.21c-.66.54-1.5.8-2.32.82-.41.01-.83-.05-1.23-.17-.2-.06-.4-.15-.59-.25-.09-.05-.19-.12-.28-.18l-.23-.17c-.59-.45-1.15-.92-1.73-1.23-.29-.15-.59-.26-.84-.25h-.09l-.12.02-.26.05-.55.11c-.74.14-1.54.25-2.35.04-.4-.11-.8-.29-1.11-.6-.3-.31-.55-.64-.66-1.06-.25-.8-.14-1.58 0-2.32.16-.74.39-1.45.66-2.14.29-.68.6-1.35.95-2z" fill="#c27b55" stroke-width="none" opacity="1"></path><path id="SvgjsPath11474" d="M102.11 103.91c-.52-.52-1.24-.61-1.94-.46-.09.02-.17.04-.25.06-.29-.19-.59-.32-.98-.32-.43 0-.95.19-1.25.52-.67.73-.68 1.78 0 2.5 1.14 1.22 3.69 1.57 4.66-.08.4-.68.33-1.65-.24-2.22z" fill="#f8d5c3" stroke-width="none" opacity="1"></path></g></g><g id="svga-group-hair-front"><path id="SvgjsPath11558" d="M142.42 55.29c-.13-2.39-.71-9.41-1.25-10.76-.54-1.35-1.92-4.55-4.99-7.22-3.07-2.66-4.92-4.05-4.92-4.05s.57-3.64-.47-5.23c-1.05-1.58-2.29-4.15-5.53-5.56s-8.16-2.87-8.3-2.87-4.62-1.48-6.71-1.92c-2.09-.44-9.91-1.62-11.77-1.99-1.85-.37-4.22-1.01-5.02-1.89-.81-.88-2.6-3.24-3.2-5.09 0 0-.1 2.09.4 4.25.51 2.16 1.38 3.74 2.36 4.55l-8.38-2.28c-7.75-3.21-9.69-8.54-9.69-8.54.96 4.08 2.58 7.37 5.53 9.99l-.08.03-.4-.1s-1.79-.61-3.47-2.26c-1.69-1.65-3.04-3.78-3.04-3.78s.3 2.46.78 3.74c.47 1.28.88 3.17.88 3.17s-1.85-2.87-2.43-3.57c-.57-.71-2.16-3.1-2.16-3.1s.13 2.26.03 3.74c-.1 1.48-.57 3.54-.57 3.54s-1.55 2.43-2.09 3.34c-.54.91-2.29 3.78-2.56 5.97s-.2 3.37.24 4.35c.44.98 1.01 2.9 1.01 2.9s-2.06 1.32-3.37 2.66c-1.32 1.35-3.27 3.17-4.42 6.27s-1.28 7.89-1.35 9.58-.24 8.26.13 10.32c.37 2.06 1.72 10.76 1.89 11.94.17 1.18 1.35 9.54 1.35 9.54l.95 4.44s-1.04-13.9 2.66-19.46c0 0 .69-13.32 1.85-16.56s1.74-7.3 6.83-11.58c0 0 4.75 3.01 10.31 2.55 0 0 6.14 4.29 9.5 2.66 0 0 3.65 2.73 7.44 1.41 1.44 1.38 2.75 1.65 2.75 1.65s1.73.41 3.34-.91l.13.05s2.08.58 4.63-.93c0 0 .95.9 5.51-1.23l8.23-5.94s2.6.51 6.54 6.68c0 0 1.55 3.88 2.19 7.12.64 3.24 1.18 8.06 1.35 10.18.17 2.12.2 5.02.2 5.02s1.72 3.34 2.23 5.94.71 10.05.71 10.05 1.18-4.15 1.18-4.25c0-.1 1.18-8.84 1.18-8.84l1.45-9.04c0 .02.54-6.28.41-8.68z" fill="#2a232b" stroke-width="none" opacity="1"></path><path id="SvgjsPath11559" d="M141.44 44.31c-.76-2.57-2.5-4.66-4.32-6.46-1.71-1.67-3.61-3.1-5.6-4.39.22-.75.35-1.53.35-2.32-.02-2.53-1.23-4.89-2.95-6.63-1.75-1.77-4.04-2.77-6.26-3.55-2.23-.8-4.52-1.4-6.58-2.44-1.02-.51-1.95-1.25-2.49-2.26-.54-1.01-.59-2.27-.15-3.36-.54 1.05-.6 2.36-.09 3.48.36.82.98 1.5 1.69 2.05-.92-.33-1.85-.59-2.77-.8-2.85-.68-5.73-1.07-8.6-1.47-1.43-.2-2.86-.4-4.28-.64-1.41-.26-2.83-.5-4.12-1.01-.32-.13-.63-.28-.9-.46-.27-.2-.56-.4-.81-.64a9.41 9.41 0 0 1-1.38-1.57c-.8-1.15-1.43-2.46-1.82-3.81l-.54-1.85.04 1.91c.04 1.74.27 3.45.72 5.12.4 1.41.99 2.83 2 3.9-1.53-.41-3.06-.79-4.58-1.17-2.64-.7-5.22-1.73-7.5-3.26-1.14-.76-2.18-1.66-3.12-2.67-.93-1-1.75-2.14-2.28-3.38l-.33.1c.55 2.23 1.33 4.42 2.52 6.4.81 1.36 1.85 2.57 3.01 3.63-1.45-.71-2.78-1.65-3.9-2.8-.57-.57-1.09-1.19-1.57-1.84-.47-.65-.92-1.33-1.27-2.03l-.78-1.54.24 1.71c.31 2.14.81 4.24 1.59 6.27.07.19.17.37.25.56-.57-1.02-1.16-2.03-1.78-3.02-.85-1.36-1.72-2.7-2.65-4.01l-.82-1.16.32 1.43c.38 1.66.28 3.41.16 5.16-.01-.03-.01-.06-.02-.08-.27-.91-.85-1.67-1.52-2.28.59.69 1.07 1.49 1.26 2.35.19.87.05 1.76-.26 2.58-.32.82-.77 1.59-1.28 2.33-.52.76-1.02 1.53-1.47 2.34-.92 1.61-1.6 3.39-1.88 5.27-.31 1.88.08 3.88.78 5.59.16.41.35.8.54 1.19-1.92 1.25-3.7 2.75-5.17 4.54-.79.97-1.5 2.01-2.07 3.14-.58 1.14-.92 2.36-1.21 3.58-1.09 4.9-1.15 9.89-.94 14.85.1 2.5.57 4.95.95 7.38l1.23 7.29c.42 2.41.65 4.88 1.12 7.31.44 2.43.92 4.85 1.42 7.27l.4-.05c-.12-1.71-.16-3.42-.19-5.14-.03-1.71 0-3.43.12-5.14.11-1.71.31-3.39.89-5.01.52-1.61 1.14-3.24 1.95-4.68l.04-.08v-.09c.13-2.53.31-5.06.56-7.58.28-2.52.56-5.03 1.04-7.51.24-1.24.52-2.47.88-3.67.36-1.2.75-2.4 1.34-3.49.57-1.07 1.39-2.09 2.12-3.11.38-.5.77-1.01 1.18-1.48.33-.36.68-.77 1.07-1.04 1.5 1.07 3.26 1.66 5.01 2 1.71.29 3.44.4 5.15.3 1.18.8 2.41 1.54 3.72 2.11.96.4 1.96.73 2.99.89.98.14 2.03.14 2.93-.28.4.37.85.69 1.33.92 1.98.96 4.24.99 6.29.54.77.72 1.67 1.29 2.71 1.58 1.25.26 2.57-.15 3.53-.97 1.32.45 2.85.24 4.06-.5.16-.1.3-.22.45-.33 1.11.34 2.32.14 3.41-.19 1.14-.36 2.21-.91 3.22-1.53 2-1.26 3.94-2.61 5.82-4.05.54-.41 1.07-.84 1.59-1.28.98.58 1.83 1.36 2.62 2.18.92.97 1.76 2.02 2.53 3.11.78 1.06 1.28 2.29 1.71 3.55.42 1.26.76 2.55 1.03 3.86.56 2.62.88 5.29 1.18 7.96.28 2.67.48 5.36.61 8.04v.09l.04.08c.81 1.44 1.43 3.06 1.95 4.68.58 1.62.77 3.3.89 5.01.11 1.71.15 3.42.12 5.14-.03 1.71-.08 3.43-.19 5.14l.4.05c.53-2.51 1.02-5.03 1.48-7.56.22-1.26.43-2.54.59-3.81.16-1.26.37-2.52.58-3.78l1.28-7.58c.21-1.27.41-2.54.58-3.82.17-1.29.23-2.59.28-3.88.16-5.17.07-10.39-1.42-15.43zm-69.72-1.39c-.46.45-.89.92-1.32 1.4-.82.98-1.66 1.93-2.33 3.08-1.29 2.28-1.93 4.81-2.47 7.3-.51 2.51-.9 5.04-1.12 7.59-.23 2.52-.37 5.04-.38 7.58-.79 1.56-1.31 3.16-1.77 4.79-.5 1.66-.69 3.42-.77 5.13-.08 1.72-.08 3.44-.09 5.16 0 .75.01 1.51.03 2.26-.24-1.48-.48-2.96-.69-4.45-.36-2.43-.55-4.88-.91-7.34-.34-2.45-.75-4.88-1.12-7.31-.36-2.44-.74-4.86-.88-7.29-.13-2.44-.15-4.9-.05-7.34.12-2.44.27-4.89.77-7.27.76-4.63 3.96-8.46 7.69-11.32.64 1.24 1.44 2.41 2.37 3.44 1.26 1.38 2.68 2.59 4.18 3.65-.44.25-.78.62-1.14.94zm6.39.68c-1.74-.44-3.44-1.1-4.79-2.23-2.83-2.23-5.42-4.83-6.69-8.16-.68-1.65-1.01-3.35-.77-5.1.2-1.74.83-3.43 1.62-5.03.4-.8.84-1.59 1.32-2.36.4-.65.77-1.34 1.05-2.06-.09 1.28-.17 2.57-.2 3.87-.04 2.07.06 4.17.54 6.24.46 2.08 1.42 4 2.58 5.74 2.35 3.49 5.51 6.28 8.81 8.74.5.37 1.01.73 1.52 1.08-1.69-.09-3.37-.31-4.99-.73zm11.8 3.53c-.99-.21-1.94-.6-2.84-1.05-1.82-.91-3.46-2.11-5.05-3.39-3.15-2.58-6.26-5.31-8.45-8.7-1.1-1.68-1.94-3.52-2.41-5.45-.48-1.94-.6-3.97-.59-6 0-2.03.18-4.07.27-6.13.05-1.03.08-2.06.05-3.11-.02-.61-.06-1.23-.14-1.85 1.51 2.03 2.99 4.08 4.37 6.21.29.62.61 1.23 1 1.81.6.91 1.41 1.79 2.33 2.39 1.75 1.26 3.59 2.34 5.17 3.69 1.57 1.34 2.86 2.98 3.64 4.91 1.68 3.84 1.84 8.19 3.2 12.31.35 1.03.76 2.03 1.29 2.99.28.49.64.94 1.05 1.32-.94.33-1.95.24-2.89.05zm4.42.52a5.585 5.585 0 0 1-2.1-2.16c-.46-.92-.84-1.91-1.14-2.92-1.14-4.03-1.28-8.41-2.98-12.48a13.2 13.2 0 0 0-3.87-5.29c-1.69-1.41-3.55-2.47-5.28-3.68-1.73-1.09-2.77-2.97-3.6-4.87-.62-1.47-1.11-3.01-1.46-4.57.67.93 1.43 1.78 2.28 2.55.61.56 1.27 1.06 1.97 1.49.68.45 1.42.77 2.17 1.08.54.49 1.09.96 1.69 1.39 1.85 1.39 4.04 2.32 6.09 3.21 1.98.98 3.56 2.63 4.66 4.55 2.18 3.91 3.03 8.46 3.7 12.94.28 2.25.72 4.59 1.75 6.66.57 1.1 1.3 2.15 2.22 3-2.09.27-4.31.12-6.1-.9zm8.83 2.38c-2.19-.67-3.8-2.56-4.69-4.61-.42-1.05-.77-2.12-.95-3.24-.21-1.11-.28-2.23-.41-3.38-.22-2.28-.59-4.56-1.12-6.81-.53-2.24-1.29-4.47-2.49-6.49-1.17-2.02-2.91-3.82-5.09-4.78-2.16-.86-4.25-1.65-6.12-2.95-1.89-1.23-3.5-2.88-4.7-4.81-.94-1.49-1.59-3.13-2.07-4.82 1.17 1.98 2.83 3.64 4.68 5 2.29 1.65 4.9 2.82 7.6 3.59 2.69.76 5.36 1.43 7.97 2.34 2.6.89 5.12 2.02 7.33 3.58 2.2 1.55 3.96 3.7 4.89 6.22.97 2.52 1.42 5.26 1.51 8 .1 2.74-.13 5.52-.87 8.17-.38 1.31-.87 2.65-1.77 3.67-.92 1.01-2.35 1.57-3.7 1.32zm7.44-1.58c-1.13.75-2.58 1.06-3.93.69.11-.09.22-.19.32-.3.95-1.06 1.51-2.38 1.96-3.71.87-2.67 1.25-5.48 1.3-8.29.01-2.81-.36-5.65-1.34-8.34-.99-2.71-2.89-5.06-5.22-6.72-2.32-1.69-4.98-2.75-7.63-3.64a60.4 60.4 0 0 0-3.41-1.02c-.96-1.12-1.47-2.57-1.81-3.99-.25-1.12-.39-2.26-.45-3.4.34.86.76 1.68 1.26 2.46.4.62.89 1.2 1.43 1.72.27.27.57.5.87.73.33.23.67.4 1.02.56 1.4.58 2.83.89 4.27 1.15 1.43.26 2.87.47 4.3.68 2.86.42 5.72.84 8.49 1.53 2.76.68 5.52 1.64 7.37 3.71 1.9 2.02 2.37 5.02 1.86 7.75-.29 1.32-.88 2.66-1.45 3.96-.6 1.3-1.24 2.59-1.93 3.86a83.922 83.922 0 0 1-4.46 7.4c-.84 1.18-1.63 2.43-2.82 3.21zm12.57-6.48c-1.79 1.51-3.69 2.89-5.6 4.27-.95.67-1.97 1.25-3.06 1.67-1.05.38-2.21.66-3.33.41 1.03-.77 1.8-1.82 2.58-2.81 1.74-2.33 3.27-4.8 4.72-7.32.73-1.26 1.41-2.54 2.05-3.85.63-1.32 1.24-2.64 1.59-4.14.26-1.47.33-2.99.01-4.48-.29-1.49-1-2.91-2.01-4.05a9.366 9.366 0 0 0-1.63-1.46c1.3.52 2.62.99 3.9 1.51 2.16.88 4.32 1.81 5.88 3.46 1.57 1.61 2.6 3.78 2.61 5.99.02 1.1-.23 2.2-.71 3.21-.46 1.01-1.19 1.89-1.96 2.77-1.53 1.73-3.26 3.3-5.04 4.82zm18.68 17.7c-.08 2.55-.42 5.04-.8 7.58l-1.17 7.6c-.39 2.55-.59 5.11-.95 7.63-.22 1.58-.47 3.15-.73 4.73.02-.75.03-1.5.03-2.25-.01-1.72-.01-3.44-.09-5.16-.09-1.71-.27-3.47-.77-5.13-.46-1.63-.98-3.23-1.77-4.79-.01-2.69-.17-5.37-.43-8.05-.26-2.7-.68-5.38-1.27-8.04-.62-2.63-1.37-5.34-3.07-7.58-.83-1.08-1.73-2.11-2.73-3.04-.84-.77-1.74-1.5-2.77-2.02 1.25-1.06 2.45-2.2 3.55-3.43.78-.88 1.6-1.83 2.14-2.96.18-.37.33-.77.46-1.17 1.89 1.38 3.67 2.93 5.28 4.62 1.74 1.84 3.27 3.92 3.93 6.33.68 2.42.95 4.96 1.09 7.49.15 2.55.17 5.1.07 7.64z" fill="#1b141c" stroke-width="none" opacity="1"></path></g><g id="svga-group-glasses-single-move" transform="matrix(1,0,0,1,0,0)"><g id="svga-group-glasses-single"><path id="SvgjsPath11503" d="M67 81.67c-1.63 3.03-1.35 9.4 2.14 14.91 3.45 5.46 12.82 5.8 18.41 3.12 5.61-2.69 7.83-8.11 8.08-12.16.26-4.08-3.21-6.41-5.12-7.12-1.92-.72-12.68-2.15-17.58-1.44-4.89.72-5.93 2.69-5.93 2.69z" fill="url(#SvgjsLinearGradient11504)" opacity="1"></path><path id="SvgjsPath11507" d="M133.34 81.67c1.63 3.03 1.35 9.4-2.14 14.91-3.45 5.46-12.82 5.8-18.41 3.12-5.61-2.69-7.83-8.11-8.08-12.16-.26-4.08 3.21-6.41 5.12-7.12 1.92-.72 12.68-2.15 17.58-1.44 4.89.72 5.93 2.69 5.93 2.69z" fill="url(#SvgjsLinearGradient11508)" opacity="1"></path><path id="SvgjsPath11511" d="M120.31 102.38c-4.52 0-8.75-1.41-11.63-3.88-4.48-3.83-5.32-8.51-5.72-10.78-.1-.53-.17-.96-.27-1.22-.53-1.47-1.17-2.21-1.89-2.21h-1.26c-.72 0-1.36.75-1.89 2.21-.09.26-.17.68-.27 1.22-.4 2.26-1.24 6.94-5.72 10.78-2.88 2.47-7.12 3.88-11.63 3.88-2.94 0-5.77-.63-7.78-1.72-5.35-2.91-6.9-9.22-7.32-11.81-.54-3.3-1.89-3.93-2.3-4.04l-.19-5.72c.37-.01 1.49-.05 2.47-.3.06-.01 6.18-1.49 12.16-1.49.99 0 1.92.04 2.77.12 5.64.55 10.17 1.6 13.48 2.37l.73.17c2.3.53 3.91.61 4.67.61.41 0 .63-.02.63-.02h1.64s.21.02.61.02c.76 0 2.38-.08 4.67-.61l.73-.17c3.31-.77 7.85-1.83 13.48-2.37.85-.08 1.78-.12 2.77-.12 5.98 0 12.1 1.48 12.16 1.49.99.25 2.1.29 2.47.3l-.19 5.72c-.41.12-1.76.75-2.3 4.04-.42 2.59-1.97 8.9-7.32 11.81-1.98 1.1-4.82 1.72-7.76 1.72zm2.83-22.83c-.8 0-1.59.02-2.34.05-1.39.06-7.17.47-10.13 1.47-2.96 1-4.95 2.95-5.18 5.08-.27 2.45.53 5.53 2.14 8.21 1.71 2.85 3.96 4.64 6.88 5.49 1.8.52 3.5.76 5.35.76 1.53 0 3.16-.17 4.98-.51 3.23-.62 5.67-2.92 7.25-6.85 1.4-3.49 1.77-8.77-.09-11.21-1.27-1.67-4.17-2.49-8.86-2.49zm-45.94 0c-4.69 0-7.59.81-8.87 2.48-1.86 2.43-1.49 7.72-.09 11.21 1.58 3.94 4.02 6.24 7.25 6.85 1.82.35 3.44.51 4.98.51 1.85 0 3.55-.24 5.35-.76 2.93-.85 5.18-2.64 6.88-5.49 1.61-2.69 2.41-5.76 2.14-8.21-.24-2.13-2.22-4.08-5.18-5.08-2.96-1-8.74-1.41-10.13-1.47-.74-.01-1.53-.04-2.33-.04z" fill="#26120b" stroke-width="none" opacity="1"></path><path id="SvgjsPath11512" d="M123.27 77.43c5.96 0 12.06 1.48 12.12 1.49.91.23 1.91.28 2.38.3l-.18 5.5c-.52.19-1.79.98-2.3 4.12-.42 2.58-1.96 8.83-7.25 11.72-1.99 1.08-4.8 1.7-7.71 1.7-4.49 0-8.69-1.4-11.55-3.85-4.45-3.81-5.28-8.46-5.68-10.71-.1-.56-.17-.97-.27-1.24-.56-1.55-1.22-2.3-2.02-2.3h-1.26c-.8 0-1.46.75-2.02 2.3-.1.27-.17.68-.27 1.24-.4 2.25-1.23 6.9-5.68 10.71-2.86 2.45-7.07 3.85-11.55 3.85-2.92 0-5.73-.62-7.71-1.7-5.3-2.89-6.83-9.15-7.25-11.72-.51-3.14-1.78-3.92-2.3-4.12l-.18-5.5c.46-.01 1.47-.07 2.38-.3.06-.01 6.16-1.49 12.12-1.49.98 0 1.91.04 2.76.12 5.63.55 10.16 1.6 13.46 2.37l.73.17c2.31.53 3.94.61 4.7.61.4 0 .61-.02.62-.02h1.63s.22.02.64.02c.77 0 2.39-.08 4.7-.61l.73-.17c3.3-.77 7.83-1.83 13.46-2.37.84-.08 1.76-.12 2.75-.12m-3.4 23.31c1.54 0 3.18-.17 5-.52 3.28-.62 5.75-2.95 7.35-6.93 1.41-3.52 1.78-8.86-.1-11.33-1.3-1.7-4.24-2.53-8.97-2.53-.71 0-1.48.02-2.35.05-1.39.06-7.19.48-10.17 1.48-3.01 1.01-5.03 3-5.27 5.18-.27 2.48.54 5.58 2.16 8.29 1.72 2.88 4 4.69 6.96 5.54 1.81.52 3.52.77 5.39.77m-39.39 0c1.86 0 3.57-.24 5.39-.77 2.96-.85 5.23-2.66 6.96-5.54 1.62-2.71 2.43-5.81 2.16-8.29-.24-2.18-2.26-4.17-5.27-5.18-2.97-1-8.77-1.42-10.17-1.48-.87-.04-1.64-.05-2.35-.05-4.73 0-7.67.83-8.97 2.53-1.89 2.47-1.52 7.81-.1 11.33 1.6 3.98 4.07 6.31 7.35 6.93 1.82.35 3.45.52 5 .52m42.79-23.57c-.95 0-1.88.04-2.78.13-6.07.59-10.85 1.77-14.23 2.55-2.25.52-3.84.61-4.64.61-.4 0-.61-.02-.61-.02h-1.66s-.21.02-.61.02c-.81 0-2.39-.09-4.65-.61-3.38-.78-8.16-1.96-14.23-2.55-.9-.09-1.84-.12-2.78-.13-5.44 0-11.18 1.25-12.19 1.5-1.18.29-2.57.29-2.57.29l.2 5.94s1.69.19 2.3 3.96c.61 3.74 2.54 9.26 7.39 11.9 2.04 1.11 4.85 1.74 7.84 1.74 4.1 0 8.53-1.18 11.72-3.91 5.55-4.75 5.53-10.69 6.02-12.05.49-1.35 1.08-2.13 1.77-2.13h1.26c.69 0 1.28.78 1.77 2.13.49 1.35.47 7.3 6.02 12.05 3.19 2.73 7.62 3.91 11.72 3.91 2.99 0 5.8-.62 7.84-1.74 4.85-2.64 6.78-8.16 7.39-11.9.61-3.77 2.3-3.96 2.3-3.96l.2-5.94s-1.39 0-2.57-.29c-1.04-.25-6.78-1.5-12.22-1.5zm-3.4 23.32c-1.99 0-3.69-.29-5.31-.76-2.83-.82-5.06-2.51-6.81-5.43-1.76-2.93-2.37-5.93-2.13-8.14.24-2.21 2.36-4.05 5.09-4.97 2.74-.92 8.21-1.38 10.09-1.46.75-.03 1.54-.05 2.33-.05 3.52 0 7.23.43 8.77 2.44 1.88 2.45 1.41 7.77.07 11.09-1.33 3.3-3.47 6.07-7.16 6.78-1.85.34-3.47.5-4.94.5zm-39.4 0c-1.47 0-3.09-.16-4.95-.51-3.69-.7-5.83-3.48-7.16-6.78-1.33-3.32-1.8-8.64.07-11.09 1.54-2 5.25-2.43 8.77-2.44.8 0 1.58.02 2.33.05 1.88.08 7.35.54 10.09 1.46 2.74.92 4.85 2.76 5.09 4.97.24 2.2-.37 5.2-2.13 8.14-1.75 2.92-3.98 4.61-6.81 5.43-1.61.48-3.31.77-5.3.77z" fill="#070201" stroke-width="none" opacity="1"></path></g></g></g></g></g><rect id="svga-credit-rect" width="200" height="15" x="0" y="185" fill="#ecf0f1" opacity="0.5" style="display: none;"></rect><text id="svga-credit-text" font-family="Avenir Next, Roboto, Helvetica, Arial, sans-serif" font-size="10px" text-anchor="start" font-weight="400" size="10px" anchor="start" weight="400" fill="#333333" x="33.40313720703125" y="182.60824728012085" style="display: none;"><tspan id="SvgjsTspan11258" dy="13" x="33.40313720703125">Created on AvatarMaker.com</tspan></text></g><defs id="SvgjsDefs11205"><linearGradient id="SvgjsLinearGradient11504" x1="80.8483" y1="78.7842" x2="80.8483" y2="101.3287" gradientUnits="userSpaceOnUse" class="svga-on-canvas-glasses-gradient-single-0-null"><stop id="SvgjsStop11505" stop-opacity="1" stop-color="#9bc2cf" offset="0" ></stop><stop id="SvgjsStop11506" stop-opacity="0" stop-color="#6086c4" offset="1" ></stop></linearGradient><linearGradient id="SvgjsLinearGradient11508" x1="-19.4949" y1="78.7842" x2="-19.4949" y2="101.3287" gradientTransform="matrix(-1 0 0 1 100 0)" gradientUnits="userSpaceOnUse" class="svga-on-canvas-glasses-gradient-single-1-null"><stop id="SvgjsStop11509" stop-opacity="1" stop-color="#9bc2cf" offset="0" ></stop><stop id="SvgjsStop11510" stop-opacity="0" stop-color="#6086c4" offset="1" ></stop></linearGradient></defs></svg>